<svg width="12.000000" height="13.000000" viewBox="0 0 12 13" fill="none" xmlns="http://www.w3.org/2000/svg" xmlns:xlink="http://www.w3.org/1999/xlink">
	<desc>
			Created with Pixso.
	</desc>
	<defs/>
	<rect id="svg" width="12.000000" height="13.000000" transform="translate(-0.854126 -0.517456)" fill="#FFFFFF" fill-opacity="0"/>
	<path id="Vector" d="M1.03 1.52C2.16 0.29 3.53 -0.32 5.14 -0.32C6.75 -0.32 8.12 0.29 9.25 1.52C10.39 2.75 10.95 4.23 10.95 5.98C10.95 7.72 10.39 9.21 9.25 10.43C8.12 11.66 6.75 12.28 5.14 12.28C3.53 12.28 2.16 11.66 1.03 10.43C-0.1 9.21 -0.67 7.72 -0.67 5.98C-0.67 4.23 -0.1 2.75 1.03 1.52ZM1.82 9.57C2.74 10.56 3.84 11.06 5.14 11.06C6.44 11.06 7.54 10.56 8.46 9.57C9.37 8.58 9.83 7.38 9.83 5.98C9.83 4.57 9.37 3.38 8.46 2.38C7.54 1.4 6.44 0.9 5.14 0.9C3.84 0.9 2.74 1.4 1.82 2.38C0.91 3.38 0.45 4.57 0.45 5.98C0.45 7.38 0.91 8.58 1.82 9.57ZM7.53 4.4L6.08 5.98L7.53 7.55C7.66 7.7 7.66 7.85 7.53 7.98L6.99 8.57C6.87 8.7 6.73 8.7 6.59 8.57L5.14 6.99L3.69 8.57C3.55 8.7 3.41 8.7 3.29 8.57L2.75 7.98C2.63 7.85 2.63 7.7 2.75 7.55L4.2 5.98L2.75 4.4C2.63 4.25 2.63 4.11 2.75 3.97L3.29 3.39C3.41 3.25 3.55 3.25 3.69 3.39L5.14 4.96L6.59 3.39C6.73 3.25 6.87 3.25 6.99 3.39L7.53 3.97C7.66 4.11 7.66 4.25 7.53 4.4Z" fill="#7A8288" fill-opacity="1.000000" fill-rule="nonzero"/>
</svg>
