<svg width="13" height="14" viewBox="0 0 13 14" fill="none" xmlns="http://www.w3.org/2000/svg">
<path d="M2.03256 2.52645C3.1659 1.29987 4.53701 0.686584 6.1459 0.686584C7.75478 0.686584 9.1259 1.29987 10.2592 2.52645C11.3926 3.75422 11.9592 5.23959 11.9592 6.98256C11.9592 8.72552 11.3926 10.2109 10.2592 11.4387C9.1259 12.6664 7.75478 13.2803 6.1459 13.2803C4.53701 13.2803 3.1659 12.6664 2.03256 11.4387C0.90034 10.2109 0.334229 8.72552 0.334229 6.98256C0.334229 5.23959 0.90034 3.75422 2.03256 2.52645ZM2.82923 10.5756C3.74367 11.5663 4.84923 12.0616 6.1459 12.0616C7.44256 12.0616 8.54812 11.5663 9.46256 10.5756C10.377 9.58496 10.8342 8.38728 10.8342 6.98256C10.8342 5.57783 10.377 4.38015 9.46256 3.3895C8.54812 2.40006 7.44256 1.90533 6.1459 1.90533C4.84923 1.90533 3.74367 2.40006 2.82923 3.3895C1.9159 4.38015 1.45923 5.57783 1.45923 6.98256C1.45923 8.38728 1.9159 9.58496 2.82923 10.5756ZM8.5359 5.40811L7.08423 6.98256L8.5359 8.557C8.66145 8.70867 8.66145 8.85251 8.5359 8.98853L7.99756 9.57172C7.87201 9.70774 7.73923 9.70774 7.59923 9.57172L6.1459 7.99908L4.69256 9.57172C4.55256 9.70774 4.41978 9.70774 4.29423 9.57172L3.7559 8.98853C3.63034 8.85251 3.63034 8.70867 3.7559 8.557L5.20923 6.98256L3.7559 5.40811C3.63034 5.25645 3.63034 5.1126 3.7559 4.97658L4.29423 4.39339C4.41978 4.25737 4.55256 4.25737 4.69256 4.39339L6.1459 5.96783L7.59923 4.39339C7.73923 4.25737 7.87201 4.25737 7.99756 4.39339L8.5359 4.97658C8.66145 5.1126 8.66145 5.25645 8.5359 5.40811Z" fill="#7A8288"/>
</svg>
